<svg id="visual" viewBox="0 0 1920 1080" width="1920" height="1080" xmlns="http://www.w3.org/2000/svg" xmlns:xlink="http://www.w3.org/1999/xlink" version="1.1"><path d="M0 271L29.2 260.2C58.3 249.3 116.7 227.7 174.8 213.3C233 199 291 192 349.2 204.7C407.3 217.3 465.7 249.7 523.8 235.2C582 220.7 640 159.3 698.2 144.8C756.3 130.3 814.7 162.7 872.8 164.5C931 166.3 989 137.7 1047.2 136C1105.3 134.3 1163.7 159.7 1221.8 157.8C1280 156 1338 127 1396.2 121.5C1454.3 116 1512.7 134 1570.8 153.8C1629 173.7 1687 195.3 1745.2 188.2C1803.3 181 1861.7 145 1890.8 127L1920 109L1920 0L1890.8 0C1861.7 0 1803.3 0 1745.2 0C1687 0 1629 0 1570.8 0C1512.7 0 1454.3 0 1396.2 0C1338 0 1280 0 1221.8 0C1163.7 0 1105.3 0 1047.2 0C989 0 931 0 872.8 0C814.7 0 756.3 0 698.2 0C640 0 582 0 523.8 0C465.7 0 407.3 0 349.2 0C291 0 233 0 174.8 0C116.7 0 58.3 0 29.2 0L0 0Z" fill="#2c2d42"></path><path d="M0 357L29.2 355.3C58.3 353.7 116.7 350.3 174.8 345C233 339.7 291 332.3 349.2 348.5C407.3 364.7 465.7 404.3 523.8 393.5C582 382.7 640 321.3 698.2 310.5C756.3 299.7 814.7 339.3 872.8 343C931 346.7 989 314.3 1047.2 307.2C1105.3 300 1163.7 318 1221.8 298.2C1280 278.3 1338 220.7 1396.2 204.5C1454.3 188.3 1512.7 213.7 1570.8 242.5C1629 271.3 1687 303.7 1745.2 300C1803.3 296.3 1861.7 256.7 1890.8 236.8L1920 217L1920 107L1890.8 125C1861.7 143 1803.3 179 1745.2 186.2C1687 193.3 1629 171.7 1570.8 151.8C1512.7 132 1454.3 114 1396.2 119.5C1338 125 1280 154 1221.8 155.8C1163.7 157.7 1105.3 132.3 1047.2 134C989 135.7 931 164.3 872.8 162.5C814.7 160.7 756.3 128.3 698.2 142.8C640 157.3 582 218.7 523.8 233.2C465.7 247.7 407.3 215.3 349.2 202.7C291 190 233 197 174.8 211.3C116.7 225.7 58.3 247.3 29.2 258.2L0 269Z" fill="#26273a"></path><path d="M0 692L29.2 702.8C58.3 713.7 116.7 735.3 174.8 735.3C233 735.3 291 713.7 349.2 706.5C407.3 699.3 465.7 706.7 523.8 686.8C582 667 640 620 698.2 616.3C756.3 612.7 814.7 652.3 872.8 654.2C931 656 989 620 1047.2 598.5C1105.3 577 1163.7 570 1221.8 586.2C1280 602.3 1338 641.7 1396.2 632.7C1454.3 623.7 1512.7 566.3 1570.8 580.8C1629 595.3 1687 681.7 1745.2 696C1803.3 710.3 1861.7 652.7 1890.8 623.8L1920 595L1920 215L1890.8 234.8C1861.7 254.7 1803.3 294.3 1745.2 298C1687 301.7 1629 269.3 1570.8 240.5C1512.7 211.7 1454.3 186.3 1396.2 202.5C1338 218.7 1280 276.3 1221.8 296.2C1163.7 316 1105.3 298 1047.2 305.2C989 312.3 931 344.7 872.8 341C814.7 337.3 756.3 297.7 698.2 308.5C640 319.3 582 380.7 523.8 391.5C465.7 402.3 407.3 362.7 349.2 346.5C291 330.3 233 337.7 174.8 343C116.7 348.3 58.3 351.7 29.2 353.3L0 355Z" fill="#212132"></path><path d="M0 951L29.2 952.8C58.3 954.7 116.7 958.3 174.8 944C233 929.7 291 897.3 349.2 904.5C407.3 911.7 465.7 958.3 523.8 962C582 965.7 640 926.3 698.2 921C756.3 915.7 814.7 944.3 872.8 942.5C931 940.7 989 908.3 1047.2 894C1105.3 879.7 1163.7 883.3 1221.8 886.8C1280 890.3 1338 893.7 1396.2 908C1454.3 922.3 1512.7 947.7 1570.8 960.3C1629 973 1687 973 1745.2 971.2C1803.3 969.3 1861.7 965.7 1890.8 963.8L1920 962L1920 593L1890.8 621.8C1861.7 650.7 1803.3 708.3 1745.2 694C1687 679.7 1629 593.3 1570.8 578.8C1512.7 564.3 1454.3 621.7 1396.2 630.7C1338 639.7 1280 600.3 1221.8 584.2C1163.7 568 1105.3 575 1047.2 596.5C989 618 931 654 872.8 652.2C814.7 650.3 756.3 610.7 698.2 614.3C640 618 582 665 523.8 684.8C465.7 704.7 407.3 697.3 349.2 704.5C291 711.7 233 733.3 174.8 733.3C116.7 733.3 58.3 711.7 29.2 700.8L0 690Z" fill="#1b1b2a"></path><path d="M0 1081L29.2 1081C58.3 1081 116.7 1081 174.8 1081C233 1081 291 1081 349.2 1081C407.3 1081 465.7 1081 523.8 1081C582 1081 640 1081 698.2 1081C756.3 1081 814.7 1081 872.8 1081C931 1081 989 1081 1047.2 1081C1105.3 1081 1163.7 1081 1221.8 1081C1280 1081 1338 1081 1396.2 1081C1454.3 1081 1512.7 1081 1570.8 1081C1629 1081 1687 1081 1745.2 1081C1803.3 1081 1861.7 1081 1890.8 1081L1920 1081L1920 960L1890.8 961.8C1861.7 963.7 1803.3 967.3 1745.2 969.2C1687 971 1629 971 1570.8 958.3C1512.7 945.7 1454.3 920.3 1396.2 906C1338 891.7 1280 888.3 1221.8 884.8C1163.7 881.3 1105.3 877.7 1047.2 892C989 906.3 931 938.7 872.8 940.5C814.7 942.3 756.3 913.7 698.2 919C640 924.3 582 963.7 523.8 960C465.7 956.3 407.3 909.7 349.2 902.5C291 895.3 233 927.7 174.8 942C116.7 956.3 58.3 952.7 29.2 950.8L0 949Z" fill="#161623"></path></svg>