<svg id="visual" viewBox="0 0 1920 1080" width="1920" height="1080" xmlns="http://www.w3.org/2000/svg" xmlns:xlink="http://www.w3.org/1999/xlink" version="1.1"><path d="M0 195L29.2 195C58.3 195 116.7 195 174.8 189.7C233 184.3 291 173.7 349.2 166.5C407.3 159.3 465.7 155.7 523.8 152C582 148.3 640 144.7 698.2 144.7C756.3 144.7 814.7 148.3 872.8 144.8C931 141.3 989 130.7 1047.2 150.5C1105.3 170.3 1163.7 220.7 1221.8 249.5C1280 278.3 1338 285.7 1396.2 283.8C1454.3 282 1512.7 271 1570.8 238.5C1629 206 1687 152 1745.2 155.7C1803.3 159.3 1861.7 220.7 1890.8 251.3L1920 282L1920 0L1890.8 0C1861.7 0 1803.3 0 1745.2 0C1687 0 1629 0 1570.8 0C1512.7 0 1454.3 0 1396.2 0C1338 0 1280 0 1221.8 0C1163.7 0 1105.3 0 1047.2 0C989 0 931 0 872.8 0C814.7 0 756.3 0 698.2 0C640 0 582 0 523.8 0C465.7 0 407.3 0 349.2 0C291 0 233 0 174.8 0C116.7 0 58.3 0 29.2 0L0 0Z" fill="#a3a3a3"></path><path d="M0 487L29.2 472.7C58.3 458.3 116.7 429.7 174.8 436.8C233 444 291 487 349.2 506.7C407.3 526.3 465.7 522.7 523.8 488.5C582 454.3 640 389.7 698.2 397C756.3 404.3 814.7 483.7 872.8 492.7C931 501.7 989 440.3 1047.2 458.3C1105.3 476.3 1163.7 573.7 1221.8 618.7C1280 663.7 1338 656.3 1396.2 618.5C1454.3 580.7 1512.7 512.3 1570.8 487.2C1629 462 1687 480 1745.2 514.2C1803.3 548.3 1861.7 598.7 1890.8 623.8L1920 649L1920 280L1890.8 249.3C1861.7 218.7 1803.3 157.3 1745.2 153.7C1687 150 1629 204 1570.8 236.5C1512.7 269 1454.3 280 1396.2 281.8C1338 283.7 1280 276.3 1221.8 247.5C1163.7 218.7 1105.3 168.3 1047.2 148.5C989 128.7 931 139.3 872.8 142.8C814.7 146.3 756.3 142.7 698.2 142.7C640 142.7 582 146.3 523.8 150C465.7 153.7 407.3 157.3 349.2 164.5C291 171.7 233 182.3 174.8 187.7C116.7 193 58.3 193 29.2 193L0 193Z" fill="#b9b9b9"></path><path d="M0 692L29.2 663.2C58.3 634.3 116.7 576.7 174.8 573.2C233 569.7 291 620.3 349.2 649.2C407.3 678 465.7 685 523.8 650.7C582 616.3 640 540.7 698.2 538.8C756.3 537 814.7 609 872.8 630.7C931 652.3 989 623.7 1047.2 634.5C1105.3 645.3 1163.7 695.7 1221.8 720.8C1280 746 1338 746 1396.2 720.8C1454.3 695.7 1512.7 645.3 1570.8 627.3C1629 609.3 1687 623.7 1745.2 647C1803.3 670.3 1861.7 702.7 1890.8 718.8L1920 735L1920 647L1890.8 621.8C1861.7 596.7 1803.3 546.3 1745.2 512.2C1687 478 1629 460 1570.8 485.2C1512.7 510.3 1454.3 578.7 1396.2 616.5C1338 654.3 1280 661.7 1221.8 616.7C1163.7 571.7 1105.3 474.3 1047.2 456.3C989 438.3 931 499.7 872.8 490.7C814.7 481.7 756.3 402.3 698.2 395C640 387.7 582 452.3 523.8 486.5C465.7 520.7 407.3 524.3 349.2 504.7C291 485 233 442 174.8 434.8C116.7 427.7 58.3 456.3 29.2 470.7L0 485Z" fill="#d0d0d0"></path><path d="M0 865L29.2 834.3C58.3 803.7 116.7 742.3 174.8 738.7C233 735 291 789 349.2 810.7C407.3 832.3 465.7 821.7 523.8 785.7C582 749.7 640 688.3 698.2 679.3C756.3 670.3 814.7 713.7 872.8 721C931 728.3 989 699.7 1047.2 721.3C1105.3 743 1163.7 815 1221.8 843.7C1280 872.3 1338 857.7 1396.2 825.2C1454.3 792.7 1512.7 742.3 1570.8 738.8C1629 735.3 1687 778.7 1745.2 803.8C1803.3 829 1861.7 836 1890.8 839.5L1920 843L1920 733L1890.8 716.8C1861.7 700.7 1803.3 668.3 1745.2 645C1687 621.7 1629 607.3 1570.8 625.3C1512.7 643.3 1454.3 693.7 1396.2 718.8C1338 744 1280 744 1221.8 718.8C1163.7 693.7 1105.3 643.3 1047.2 632.5C989 621.7 931 650.3 872.8 628.7C814.7 607 756.3 535 698.2 536.8C640 538.7 582 614.3 523.8 648.7C465.7 683 407.3 676 349.2 647.2C291 618.3 233 567.7 174.8 571.2C116.7 574.7 58.3 632.3 29.2 661.2L0 690Z" fill="#e7e7e7"></path><path d="M0 1081L29.2 1081C58.3 1081 116.7 1081 174.8 1081C233 1081 291 1081 349.2 1081C407.3 1081 465.7 1081 523.8 1081C582 1081 640 1081 698.2 1081C756.3 1081 814.7 1081 872.8 1081C931 1081 989 1081 1047.2 1081C1105.3 1081 1163.7 1081 1221.8 1081C1280 1081 1338 1081 1396.2 1081C1454.3 1081 1512.7 1081 1570.8 1081C1629 1081 1687 1081 1745.2 1081C1803.3 1081 1861.7 1081 1890.8 1081L1920 1081L1920 841L1890.8 837.5C1861.7 834 1803.3 827 1745.2 801.8C1687 776.7 1629 733.3 1570.8 736.8C1512.7 740.3 1454.3 790.7 1396.2 823.2C1338 855.7 1280 870.3 1221.8 841.7C1163.7 813 1105.3 741 1047.2 719.3C989 697.7 931 726.3 872.8 719C814.7 711.7 756.3 668.3 698.2 677.3C640 686.3 582 747.7 523.8 783.7C465.7 819.7 407.3 830.3 349.2 808.7C291 787 233 733 174.8 736.7C116.7 740.3 58.3 801.7 29.2 832.3L0 863Z" fill="#ffffff"></path></svg>