<svg id="visual" viewBox="0 0 1920 1080" width="1920" height="1080" xmlns="http://www.w3.org/2000/svg" xmlns:xlink="http://www.w3.org/1999/xlink" version="1.1"><path d="M0 77L35.5 89.5C71 102 142 127 213.2 139.5C284.3 152 355.7 152 426.8 155.7C498 159.3 569 166.7 640 166.7C711 166.7 782 159.3 853.2 143.2C924.3 127 995.7 102 1066.8 107.5C1138 113 1209 149 1280 163.3C1351 177.7 1422 170.3 1493.2 166.7C1564.3 163 1635.7 163 1706.8 161.2C1778 159.3 1849 155.7 1884.5 153.8L1920 152L1920 0L1884.5 0C1849 0 1778 0 1706.8 0C1635.7 0 1564.3 0 1493.2 0C1422 0 1351 0 1280 0C1209 0 1138 0 1066.8 0C995.7 0 924.3 0 853.2 0C782 0 711 0 640 0C569 0 498 0 426.8 0C355.7 0 284.3 0 213.2 0C142 0 71 0 35.5 0L0 0Z" fill="#d7d7d7"></path><path d="M0 303L35.5 297.7C71 292.3 142 281.7 213.2 269.2C284.3 256.7 355.7 242.3 426.8 238.7C498 235 569 242 640 245.5C711 249 782 249 853.2 250.8C924.3 252.7 995.7 256.3 1066.8 269C1138 281.7 1209 303.3 1280 323.2C1351 343 1422 361 1493.2 348.3C1564.3 335.7 1635.7 292.3 1706.8 269C1778 245.7 1849 242.3 1884.5 240.7L1920 239L1920 150L1884.5 151.8C1849 153.7 1778 157.3 1706.8 159.2C1635.7 161 1564.3 161 1493.2 164.7C1422 168.3 1351 175.7 1280 161.3C1209 147 1138 111 1066.8 105.5C995.7 100 924.3 125 853.2 141.2C782 157.3 711 164.7 640 164.7C569 164.7 498 157.3 426.8 153.7C355.7 150 284.3 150 213.2 137.5C142 125 71 100 35.5 87.5L0 75Z" fill="#cecece"></path><path d="M0 681L35.5 673.8C71 666.7 142 652.3 213.2 641.7C284.3 631 355.7 624 426.8 595.2C498 566.3 569 515.7 640 506.7C711 497.7 782 530.3 853.2 523.2C924.3 516 995.7 469 1066.8 483.3C1138 497.7 1209 573.3 1280 625.5C1351 677.7 1422 706.3 1493.2 668.5C1564.3 630.7 1635.7 526.3 1706.8 508.3C1778 490.3 1849 558.7 1884.5 592.8L1920 627L1920 237L1884.5 238.7C1849 240.3 1778 243.7 1706.8 267C1635.7 290.3 1564.3 333.7 1493.2 346.3C1422 359 1351 341 1280 321.2C1209 301.3 1138 279.7 1066.8 267C995.7 254.3 924.3 250.7 853.2 248.8C782 247 711 247 640 243.5C569 240 498 233 426.8 236.7C355.7 240.3 284.3 254.7 213.2 267.2C142 279.7 71 290.3 35.5 295.7L0 301Z" fill="#c5c5c5"></path><path d="M0 941L35.5 926.5C71 912 142 883 213.2 845.2C284.3 807.3 355.7 760.7 426.8 739.2C498 717.7 569 721.3 640 717.7C711 714 782 703 853.2 690.3C924.3 677.7 995.7 663.3 1066.8 672.3C1138 681.3 1209 713.7 1280 744.3C1351 775 1422 804 1493.2 791.5C1564.3 779 1635.7 725 1706.8 739.3C1778 753.7 1849 836.3 1884.5 877.7L1920 919L1920 625L1884.5 590.8C1849 556.7 1778 488.3 1706.8 506.3C1635.7 524.3 1564.3 628.7 1493.2 666.5C1422 704.3 1351 675.7 1280 623.5C1209 571.3 1138 495.7 1066.8 481.3C995.7 467 924.3 514 853.2 521.2C782 528.3 711 495.7 640 504.7C569 513.7 498 564.3 426.8 593.2C355.7 622 284.3 629 213.2 639.7C142 650.3 71 664.7 35.5 671.8L0 679Z" fill="#b4b4b4"></path><path d="M0 1081L35.5 1081C71 1081 142 1081 213.2 1081C284.3 1081 355.7 1081 426.8 1081C498 1081 569 1081 640 1081C711 1081 782 1081 853.2 1081C924.3 1081 995.7 1081 1066.8 1081C1138 1081 1209 1081 1280 1081C1351 1081 1422 1081 1493.2 1081C1564.3 1081 1635.7 1081 1706.8 1081C1778 1081 1849 1081 1884.5 1081L1920 1081L1920 917L1884.5 875.7C1849 834.3 1778 751.7 1706.8 737.3C1635.7 723 1564.3 777 1493.2 789.5C1422 802 1351 773 1280 742.3C1209 711.7 1138 679.3 1066.8 670.3C995.7 661.3 924.3 675.7 853.2 688.3C782 701 711 712 640 715.7C569 719.3 498 715.7 426.8 737.2C355.7 758.7 284.3 805.3 213.2 843.2C142 881 71 910 35.5 924.5L0 939Z" fill="#a3a3a3"></path></svg>