<svg id="visual" viewBox="0 0 1920 1080" width="1920" height="1080" xmlns="http://www.w3.org/2000/svg" xmlns:xlink="http://www.w3.org/1999/xlink" version="1.1"><path d="M0 913L45.7 908.8C91.3 904.7 182.7 896.3 274.2 875.7C365.7 855 457.3 822 548.8 790.2C640.3 758.3 731.7 727.7 823 716.3C914.3 705 1005.7 713 1097 743.5C1188.3 774 1279.7 827 1371.2 834.3C1462.7 841.7 1554.3 803.3 1645.8 771C1737.3 738.7 1828.7 712.3 1874.3 699.2L1920 686L1920 1081L1874.3 1081C1828.7 1081 1737.3 1081 1645.8 1081C1554.3 1081 1462.7 1081 1371.2 1081C1279.7 1081 1188.3 1081 1097 1081C1005.7 1081 914.3 1081 823 1081C731.7 1081 640.3 1081 548.8 1081C457.3 1081 365.7 1081 274.2 1081C182.7 1081 91.3 1081 45.7 1081L0 1081Z" fill="#0066FF" stroke-linecap="round" stroke-linejoin="miter"></path></svg>